<?xml version="1.0" encoding="UTF-8" standalone="no"?>
<svg
   viewBox="0 0 540 218.82899"
   version="1.1"
   id="svg38"
   sodipodi:docname="inserm_fat.svg"
   width="540"
   height="218.82899"
   inkscape:version="1.1.1 (3bf5ae0d25, 2021-09-20)"
   xmlns:inkscape="http://www.inkscape.org/namespaces/inkscape"
   xmlns:sodipodi="http://sodipodi.sourceforge.net/DTD/sodipodi-0.dtd"
   xmlns:xlink="http://www.w3.org/1999/xlink"
   xmlns="http://www.w3.org/2000/svg"
   xmlns:svg="http://www.w3.org/2000/svg">
  <sodipodi:namedview
     id="namedview40"
     pagecolor="#ffffff"
     bordercolor="#666666"
     borderopacity="1.0"
     inkscape:pageshadow="2"
     inkscape:pageopacity="0.0"
     inkscape:pagecheckerboard="true"
     showgrid="false"
     inkscape:zoom="2.0611111"
     inkscape:cx="258.84097"
     inkscape:cy="69.137466"
     inkscape:window-width="1920"
     inkscape:window-height="1137"
     inkscape:window-x="-8"
     inkscape:window-y="-8"
     inkscape:window-maximized="1"
     inkscape:current-layer="g36"
     fit-margin-top="0"
     fit-margin-left="0"
     fit-margin-right="0"
     fit-margin-bottom="0" />
  <defs
     id="defs3">
    <path
       id="a"
       d="M 0,219 H 539.31 V 0.17 H 0 Z" />
  </defs>
  <g
     fill="none"
     fill-rule="evenodd"
     id="g36"
     transform="translate(-138.46192,-1.001)">
    <g
       id="g2720"
       transform="translate(69.57596)">
      <path
         fill="#000000"
         d="m 142.27,89.72 h 22.099 V 1.001 H 142.27 Z"
         id="path5" />
      <g
         transform="translate(0,0.83)"
         id="g34">
        <path
           fill="#000000"
           d="m 201.44,30.94 c 1.89,-2.02 4.11,-4.38 7.53,-6.2 2.89,-1.53 6.32,-2.94 10.97,-2.94 3.9,0 8.3,0.76 11.69,2.64 6.91,3.64 8.66,9.53 8.66,19.7 V 88.89 H 221.07 V 52.04 c 0,-5.89 -0.13,-8.02 -0.88,-9.78 -1.51,-3.51 -4.91,-5.01 -8.69,-5.01 -10.19,0 -10.19,8.15 -10.19,16.29 V 88.88 H 182.04 V 23.5 h 19.39 v 7.44 z m 58.78,35.95 c 5.28,5.14 12.54,8.94 19.9,8.94 4.69,0 11.8,-1.5 11.8,-6.39 0,-2.26 -1.4,-3.13 -2.54,-3.76 -2.92,-1.5 -7.48,-1.88 -11.29,-2.5 -2.92,-0.5 -5.96,-1.13 -8.85,-2 -4.02,-1.13 -8.03,-2.76 -10.93,-5.64 -2.89,-2.88 -4.9,-7.39 -4.9,-12.28 0,-10.78 9.3,-21.92 27.73,-21.92 15.54,0 25.05,6.21 29.55,9.34 l -10.83,11.29 c -6.12,-4.76 -13.27,-6.36 -17.83,-6.36 -7.61,0 -9.39,3.01 -9.39,4.89 0,3.76 4.19,4.51 10.53,5.64 13.25,2.38 28.5,5.89 28.5,21.43 0,15.43 -15.5,22.97 -31.04,22.97 -18.29,0 -28.18,-8.55 -32.32,-12.45 z m 109.63,-0.25 c -3.04,5.05 -6.03,9.89 -16.59,9.89 -10.43,0 -15.08,-8.22 -14.95,-16.44 h 46.87 c -0.25,-7.43 -0.75,-20.21 -9.3,-29.34 -8.41,-9.03 -19.32,-9.41 -24.49,-9.41 -25.88,0 -32.8,20.29 -32.8,36.11 0,21.56 12.67,33.83 33.17,33.83 11.57,0 19.53,-3.33 25.64,-8.89 3.4,-3.09 5.62,-6.33 7.9,-10.03 z M 338.43,48 c 0.63,-2.75 1.26,-5.74 3.89,-8.62 1.89,-2 5.15,-4.25 9.8,-4.25 3.39,0 7.04,1.25 9.43,3.62 2.76,2.87 3.26,6.5 3.64,9.24 h -26.76 z m 76.41,-17.06 c 4.27,-3.65 8.92,-7.41 18.96,-8.41 v 17.16 l -6.41,1 c -9.29,1.63 -12.05,4.76 -12.05,13.04 V 88.89 H 396.07 V 23.24 h 18.76 v 7.7 z m 47.6,0.01 c 2.29,-2.64 7.35,-9.14 18.76,-9.14 10.78,0 14.66,4.02 18.16,7.66 3.79,-3.14 9.11,-7.66 19.63,-7.66 10.78,0 16.29,5.4 18.29,9.42 1.63,3.52 1.76,8.03 1.76,15.05 V 88.89 H 520.01 V 54.56 c 0,-3.76 0,-8.65 -0.76,-11.15 -1.77,-5.51 -6.97,-5.89 -8.49,-5.89 -1.9,0 -4.44,0.51 -6.33,2.01 -3.68,2.88 -3.68,6.64 -3.68,13.78 V 88.9 H 481.72 V 50.17 c 0,-2.89 -0.13,-6.77 -1.9,-9.28 -1.52,-2.01 -4.44,-3.39 -7.61,-3.39 -1.52,0 -3.55,0.38 -5.32,1.51 -4.31,2.88 -4.44,8.14 -4.44,12.59 V 88.89 H 443.42 V 23.48 h 19.03 v 7.47 z"
           id="path7" />
        <path
           fill="#e74011"
           d="m 156.71,106.25 a 14.88,14.88 0 0 0 -17.86,17.87 c 1.21,5.46 5.61,9.86 11.07,11.07 a 14.886,14.886 0 0 0 17.87,-17.87 c -1.21,-5.46 -5.62,-9.86 -11.08,-11.07"
           id="path9" />
        <mask
           id="b"
           fill="#ffffff">
          <use
             xlink:href="#a"
             id="use11"
             x="0"
             y="0"
             width="100%"
             height="100%" />
        </mask>
        <path
           fill="#000000"
           d="m 141.96,187.79 v -18.7 h 4.52 v 14.76 h 7.09 v 3.94 z m 18.88,-5.75 c -0.15,0.05 -0.31,0.11 -0.46,0.19 -0.98,0.42 -1.23,1.01 -1.23,1.54 0,0.08 0.03,0.37 0.15,0.64 0.15,0.27 0.54,0.77 1.36,0.77 0.72,0 1.34,-0.42 1.52,-0.56 1.16,-0.85 1.21,-2.15 1.21,-3.44 z m 2.93,5.75 v -1.24 c -0.28,0.21 -0.54,0.4 -0.82,0.58 a 5.634,5.634 0 0 1 -3.29,1.03 c -2.41,0 -3.52,-1.35 -3.96,-2.28 a 4.55,4.55 0 0 1 -0.44,-1.93 c 0,-2.49 2.16,-3.68 2.75,-3.95 1,-0.45 2.83,-0.82 5.37,-1.3 v -0.77 c 0,-0.48 -0.08,-1.67 -1.52,-1.67 -1.16,0 -1.7,0.56 -1.9,1.01 -0.05,0.11 -0.13,0.32 -0.18,0.61 h -3.96 c 0.05,-0.56 0.08,-1.75 1.08,-2.78 1.1,-1.11 2.57,-1.32 3.03,-1.4 0.77,-0.11 1.41,-0.11 1.72,-0.11 1.88,0 4.42,0.45 5.32,2.44 0.15,0.37 0.28,0.74 0.28,1.54 v 8.08 c 0,1.19 0.05,1.64 0.39,2.15 h -3.87 z m 24.97,-2.17 c -1.18,1.83 -3.65,2.54 -5.68,2.54 -0.72,0 -2.95,-0.13 -4.91,-1.38 -0.8,-0.5 -1.34,-1.06 -1.59,-1.3 l 2.52,-2.33 c 0.23,0.24 0.46,0.48 0.72,0.66 0.87,0.71 2.08,1.24 3.19,1.24 0.18,0 0.54,-0.03 0.98,-0.13 0.59,-0.13 1.39,-0.48 1.39,-1.24 -0.03,-0.95 -1.21,-1.06 -2.65,-1.3 -2.8,-0.48 -4.08,-1.14 -4.78,-2.52 a 3.988,3.988 0 0 1 -0.41,-1.72 c 0,-0.37 0.08,-1.19 0.56,-2.07 0.62,-1.14 2.13,-2.57 5.11,-2.57 0.85,0 2.83,0.13 4.86,1.32 0.39,0.24 0.75,0.48 1.1,0.74 l -2.44,2.33 c -0.23,-0.19 -0.46,-0.37 -0.72,-0.53 -0.72,-0.45 -1.8,-0.85 -2.65,-0.85 -0.57,0 -1.08,0.16 -1.26,0.24 -0.49,0.24 -0.62,0.58 -0.62,0.82 0,0.27 0.15,0.5 0.36,0.66 0.39,0.27 1.36,0.4 1.8,0.5 l 1.77,0.4 c 2.13,0.48 3.98,1.59 3.98,4.16 0.01,1.16 -0.4,1.99 -0.63,2.33 m 13.8,0.24 c -1.77,2.15 -4.06,2.38 -5.03,2.38 -0.59,0 -1.77,-0.08 -3.13,-0.77 -2.52,-1.27 -3.52,-3.73 -3.52,-6.49 0,-0.63 0.03,-1.96 0.67,-3.5 1.51,-3.63 4.83,-3.92 6.06,-3.92 1.05,0 3.42,0.21 5.21,2.54 0.15,0.21 0.26,0.37 0.51,0.79 l -2.93,1.72 c -0.03,-0.08 -0.23,-0.5 -0.44,-0.8 -0.23,-0.29 -0.98,-1.14 -2.18,-1.14 -0.28,0 -0.85,0.03 -1.44,0.48 -1.36,1.06 -1.41,3.42 -1.41,3.68 0,1.19 0.39,2.73 1.28,3.5 0.26,0.21 0.82,0.66 1.7,0.66 1.28,-0.03 1.98,-0.9 2.21,-1.25 0.13,-0.21 0.23,-0.37 0.38,-0.82 l 2.98,1.59 c -0.28,0.47 -0.59,0.95 -0.92,1.35 m 3.08,1.94 h 3.93 v -13.83 h -3.93 z m 0,-15.56 h 3.93 v -3.15 h -3.93 z m 14.62,4.48 c -0.54,-0.26 -0.98,-0.26 -1.21,-0.26 -1.57,0 -2.29,1.19 -2.49,1.67 -0.1,0.24 -0.21,0.53 -0.31,1.06 h 5.47 c -0.05,-0.46 -0.12,-1.86 -1.46,-2.47 z m -4.03,5.01 c 0,0.13 -0.03,0.45 0.05,0.82 0.31,1.62 1.41,2.62 3.01,2.62 0.23,0 0.75,-0.03 1.28,-0.24 1.34,-0.48 1.93,-1.88 2.11,-2.23 l 2.98,1.59 c -0.54,0.82 -0.82,1.19 -1.13,1.56 -1.98,2.25 -4.55,2.44 -5.55,2.44 -0.41,0 -1.36,-0.03 -2.42,-0.37 -2.98,-0.95 -4.37,-3.65 -4.37,-6.78 0,-0.85 0.05,-3.42 1.72,-5.4 0.82,-0.95 2.23,-2.2 5.16,-2.2 0.9,0 3.57,0.11 5.24,2.52 1.52,2.15 1.46,5.01 1.49,5.67 z m 19.91,6.06 v -7.81 c 0,-0.93 -0.03,-1.62 -0.15,-1.99 -0.18,-0.48 -0.67,-1.11 -1.8,-1.11 -0.18,0 -0.85,0 -1.34,0.42 -0.67,0.53 -0.74,1.38 -0.74,3.02 v 7.47 h -3.96 v -13.8 h 4.01 v 1.19 c 0.13,-0.13 0.28,-0.34 0.62,-0.61 0.49,-0.37 1.57,-0.95 3.16,-0.95 0.31,0 1.44,0.03 2.39,0.56 1.64,0.9 1.77,2.46 1.77,4.16 v 9.46 h -3.96 z m 18.26,-1.93 c -1.77,2.15 -4.06,2.38 -5.04,2.38 -0.59,0 -1.77,-0.08 -3.13,-0.77 -2.52,-1.27 -3.52,-3.73 -3.52,-6.49 0,-0.63 0.03,-1.96 0.67,-3.5 1.52,-3.63 4.83,-3.92 6.06,-3.92 1.05,0 3.42,0.21 5.22,2.54 0.15,0.21 0.26,0.37 0.51,0.79 l -2.93,1.72 c -0.03,-0.08 -0.23,-0.5 -0.44,-0.8 -0.23,-0.29 -0.98,-1.14 -2.18,-1.14 -0.28,0 -0.85,0.03 -1.44,0.48 -1.36,1.06 -1.41,3.42 -1.41,3.68 0,1.19 0.39,2.73 1.28,3.5 0.26,0.21 0.82,0.66 1.7,0.66 1.28,-0.03 1.98,-0.9 2.21,-1.25 0.13,-0.21 0.23,-0.37 0.38,-0.82 l 2.98,1.59 c -0.27,0.47 -0.58,0.95 -0.92,1.35 m 10.2,-9.14 c -0.54,-0.26 -0.98,-0.26 -1.21,-0.26 -1.57,0 -2.29,1.19 -2.49,1.67 -0.1,0.24 -0.21,0.53 -0.31,1.06 h 5.47 c -0.04,-0.46 -0.12,-1.86 -1.46,-2.47 z m -4.03,5.01 c 0,0.13 -0.03,0.45 0.05,0.82 0.31,1.62 1.41,2.62 3.01,2.62 0.23,0 0.75,-0.03 1.28,-0.24 1.34,-0.48 1.93,-1.88 2.11,-2.23 l 2.98,1.59 c -0.54,0.82 -0.82,1.19 -1.13,1.56 -1.98,2.25 -4.55,2.44 -5.55,2.44 -0.41,0 -1.36,-0.03 -2.41,-0.37 -2.98,-0.95 -4.37,-3.65 -4.37,-6.78 0,-0.85 0.05,-3.42 1.72,-5.4 0.82,-0.95 2.23,-2.2 5.16,-2.2 0.9,0 3.57,0.11 5.24,2.52 1.52,2.15 1.46,5.01 1.49,5.67 z m 27.67,-4.32 c -0.31,-0.37 -0.72,-0.66 -1.18,-0.79 -0.26,-0.08 -0.46,-0.08 -0.57,-0.08 -1.46,0 -2.83,1.38 -2.83,4.37 0,0.29 -0.05,1.96 0.69,3.1 0.21,0.29 0.46,0.56 0.77,0.74 0.18,0.13 0.64,0.37 1.26,0.37 1.36,0 1.9,-1.01 2.13,-1.43 0.31,-0.58 0.64,-1.4 0.64,-2.89 0.01,-0.4 0.07,-2.2 -0.91,-3.39 m 3.49,8.16 c -0.75,1.16 -1.67,1.77 -2.11,1.99 -0.44,0.21 -1.23,0.5 -2.49,0.5 -1.41,0 -2.13,-0.42 -3.29,-1.17 v 5.7 h -4.01 v -18.62 h 3.52 l 0.02,1.35 c 0.21,-0.26 0.28,-0.4 0.57,-0.61 0.49,-0.42 1.54,-1.06 3.19,-1.06 0.77,0 2.57,0.13 4.03,1.75 1.36,1.48 1.8,3.52 1.8,5.46 -0.02,2.35 -0.74,3.91 -1.23,4.71 m 11.8,-8.27 c -0.36,-0.27 -0.9,-0.53 -1.95,-0.53 -0.18,0 -0.92,0.051 -1.49,0.4 -0.72,0.42 -1.57,1.62 -1.57,3.66 0,1.35 0.44,2.36 0.69,2.78 0.31,0.48 1.08,1.35 2.57,1.35 2.18,0 3.16,-1.88 3.16,-3.95 0,-2.09 -0.64,-3.15 -1.41,-3.71 m 3.05,9.3 c -0.77,0.66 -2.34,1.62 -4.85,1.62 -0.69,0 -3.42,-0.13 -5.27,-1.99 -0.8,-0.79 -1.93,-2.49 -1.93,-5.38 0,-0.79 0.05,-3.05 1.57,-4.93 0.92,-1.14 2.77,-2.57 6.16,-2.36 1.57,0.08 2.96,0.45 4.21,1.48 1.67,1.4 2.47,3.6 2.47,5.83 0.01,3.13 -1.43,4.94 -2.36,5.73 m 12.95,1.19 v -1.3 c -0.28,0.32 -0.44,0.48 -0.59,0.61 -0.49,0.4 -1.67,1.09 -3.31,1.09 -0.31,0 -1.8,0 -2.85,-0.85 -1.49,-1.22 -1.36,-3.44 -1.36,-5.14 v -8.24 h 3.98 v 8.61 c 0,0.87 0.03,1.54 0.74,1.99 0.23,0.13 0.57,0.32 1.16,0.32 1.26,0 1.93,-0.74 2.11,-1.24 0.13,-0.34 0.15,-0.69 0.15,-1.06 v -8.61 h 3.93 v 13.83 h -3.96 z m 13.88,-10.17 c -0.13,0.03 -0.75,0.11 -1.23,0.29 -1.05,0.37 -1.23,1.06 -1.23,2.09 v 7.79 H 327 v -13.83 h 3.83 v 1.43 c 0.33,-0.29 0.69,-0.66 1.57,-1.03 1.08,-0.45 1.82,-0.5 2.31,-0.56 v 3.6 z m 10.79,10.17 h 3.93 v -18.7 h -3.93 z m 12.43,-5.75 c -0.16,0.05 -0.31,0.11 -0.46,0.19 -0.98,0.42 -1.23,1.01 -1.23,1.54 0,0.08 0.03,0.37 0.16,0.64 0.15,0.27 0.54,0.77 1.36,0.77 0.72,0 1.34,-0.42 1.52,-0.56 1.16,-0.85 1.21,-2.15 1.21,-3.44 z m 2.93,5.75 v -1.24 c -0.28,0.21 -0.54,0.4 -0.82,0.58 a 5.634,5.634 0 0 1 -3.29,1.03 c -2.42,0 -3.52,-1.35 -3.96,-2.28 a 4.55,4.55 0 0 1 -0.44,-1.93 c 0,-2.49 2.16,-3.68 2.75,-3.95 1,-0.45 2.83,-0.82 5.37,-1.3 v -0.77 c 0,-0.48 -0.08,-1.67 -1.52,-1.67 -1.16,0 -1.7,0.56 -1.9,1.01 -0.05,0.11 -0.13,0.32 -0.18,0.61 h -3.96 c 0.05,-0.56 0.08,-1.75 1.08,-2.78 1.1,-1.11 2.57,-1.32 3.03,-1.4 0.77,-0.11 1.41,-0.11 1.72,-0.11 1.88,0 4.42,0.45 5.32,2.44 0.15,0.37 0.28,0.74 0.28,1.54 v 8.08 c 0,1.19 0.05,1.64 0.39,2.15 h -3.87 z m 24.97,-2.17 c -1.18,1.83 -3.65,2.54 -5.68,2.54 -0.72,0 -2.95,-0.13 -4.91,-1.38 -0.8,-0.5 -1.34,-1.06 -1.59,-1.3 l 2.52,-2.33 c 0.23,0.24 0.46,0.48 0.72,0.66 0.87,0.71 2.08,1.24 3.19,1.24 0.18,0 0.54,-0.03 0.98,-0.13 0.59,-0.13 1.39,-0.48 1.39,-1.24 -0.03,-0.95 -1.21,-1.06 -2.65,-1.3 -2.8,-0.48 -4.08,-1.14 -4.78,-2.52 a 4.003,4.003 0 0 1 -0.41,-1.72 c 0,-0.37 0.08,-1.19 0.57,-2.07 0.62,-1.14 2.13,-2.57 5.11,-2.57 0.85,0 2.83,0.13 4.85,1.32 0.39,0.24 0.75,0.48 1.11,0.74 l -2.44,2.33 a 6.267,6.267 0 0 0 -0.72,-0.53 c -0.72,-0.45 -1.8,-0.85 -2.65,-0.85 -0.57,0 -1.08,0.16 -1.26,0.24 -0.49,0.24 -0.62,0.58 -0.62,0.82 0,0.27 0.15,0.5 0.36,0.66 0.38,0.27 1.36,0.4 1.8,0.5 l 1.77,0.4 c 2.13,0.48 3.98,1.59 3.98,4.16 0,1.16 -0.41,1.99 -0.64,2.33 m 7.97,-3.58 c -0.15,0.05 -0.31,0.11 -0.46,0.19 -0.98,0.42 -1.23,1.01 -1.23,1.54 0,0.08 0.03,0.37 0.15,0.64 0.15,0.27 0.54,0.77 1.36,0.77 0.72,0 1.33,-0.42 1.52,-0.56 1.16,-0.85 1.21,-2.15 1.21,-3.44 z m 2.92,5.75 v -1.24 c -0.28,0.21 -0.54,0.4 -0.82,0.58 a 5.634,5.634 0 0 1 -3.29,1.03 c -2.41,0 -3.52,-1.35 -3.96,-2.28 a 4.55,4.55 0 0 1 -0.44,-1.93 c 0,-2.49 2.16,-3.68 2.75,-3.95 1,-0.45 2.83,-0.82 5.37,-1.3 v -0.77 c 0,-0.48 -0.08,-1.67 -1.52,-1.67 -1.16,0 -1.7,0.56 -1.9,1.01 -0.05,0.11 -0.13,0.32 -0.18,0.61 h -3.96 c 0.05,-0.56 0.08,-1.75 1.08,-2.78 1.1,-1.11 2.57,-1.32 3.03,-1.4 0.77,-0.11 1.41,-0.11 1.72,-0.11 1.88,0 4.42,0.45 5.32,2.44 0.15,0.37 0.28,0.74 0.28,1.54 v 8.08 c 0,1.19 0.05,1.64 0.38,2.15 h -3.86 z m 15.14,0 v -7.81 c 0,-0.93 -0.03,-1.62 -0.16,-1.99 -0.18,-0.48 -0.67,-1.11 -1.8,-1.11 -0.18,0 -0.85,0 -1.34,0.42 -0.67,0.53 -0.75,1.38 -0.75,3.02 v 7.47 h -3.96 v -13.8 h 4.01 v 1.19 c 0.13,-0.13 0.28,-0.34 0.62,-0.61 0.49,-0.37 1.57,-0.95 3.16,-0.95 0.31,0 1.44,0.03 2.39,0.56 1.64,0.9 1.77,2.46 1.77,4.16 v 9.46 h -3.94 z m 11.87,-10.99 v 6.2 c 0,0.56 -0.03,0.87 0.1,1.11 0.23,0.45 0.85,0.45 0.92,0.45 0.46,0 0.92,-0.03 1.39,-0.03 v 3.15 c -0.26,0.05 -1.18,0.21 -2.08,0.21 -0.28,0 -0.56,0 -0.82,-0.03 -0.36,-0.03 -1.54,0 -2.44,-0.85 -1.03,-0.93 -0.98,-2.33 -0.98,-3.6 v -6.65 h -1.95 v -2.49 h 1.95 v -4.32 h 3.9 v 4.34 h 2.62 v 2.49 h -2.61 z m 11.4,-4.53 h -2.59 l 1.88,-3.52 h 4.67 z m 0.44,4.45 c -0.54,-0.26 -0.98,-0.26 -1.211,-0.26 -1.569,0 -2.289,1.19 -2.489,1.67 -0.1,0.24 -0.21,0.53 -0.31,1.06 h 5.47 c -0.05,-0.46 -0.12,-1.86 -1.46,-2.47 z m -4.03,5.01 c 0,0.13 -0.03,0.45 0.05,0.82 0.31,1.61 1.41,2.62 3.01,2.62 0.23,0 0.75,-0.03 1.29,-0.24 1.33,-0.48 1.93,-1.88 2.11,-2.22 l 2.98,1.59 c -0.54,0.82 -0.82,1.19 -1.13,1.56 -1.98,2.25 -4.55,2.44 -5.55,2.44 -0.41,0 -1.36,-0.03 -2.41,-0.37 -2.98,-0.95 -4.37,-3.65 -4.37,-6.78 0,-0.85 0.05,-3.42 1.72,-5.4 0.82,-0.95 2.23,-2.2 5.16,-2.2 0.9,0 3.57,0.11 5.24,2.52 1.51,2.14 1.46,5.01 1.49,5.67 h -9.59 z M 263.2,203.39 v 3.94 h 8.66 v 3.6 h -8.66 v 7.58 h -4.52 v -18.7 h 13.92 v 3.58 z m 17.93,4.95 c -0.13,0.03 -0.75,0.11 -1.23,0.29 -1.05,0.37 -1.23,1.06 -1.23,2.09 v 7.79 h -3.93 v -13.83 h 3.83 v 1.43 c 0.33,-0.29 0.69,-0.66 1.57,-1.03 1.08,-0.45 1.83,-0.5 2.31,-0.56 v 3.6 z m 11.33,-0.32 c -0.36,-0.26 -0.9,-0.53 -1.95,-0.53 -0.18,0 -0.92,0.05 -1.49,0.4 -0.72,0.42 -1.57,1.62 -1.57,3.66 0,1.35 0.44,2.36 0.69,2.78 0.31,0.48 1.08,1.35 2.57,1.35 2.18,0 3.16,-1.88 3.16,-3.95 0,-2.09 -0.64,-3.15 -1.41,-3.71 m 3.06,9.3 c -0.77,0.66 -2.34,1.62 -4.85,1.62 -0.69,0 -3.42,-0.13 -5.27,-1.99 -0.8,-0.79 -1.93,-2.49 -1.93,-5.38 0,-0.79 0.05,-3.05 1.57,-4.93 0.92,-1.14 2.77,-2.57 6.17,-2.36 1.57,0.08 2.96,0.45 4.21,1.48 1.67,1.4 2.47,3.6 2.47,5.83 -0.01,3.13 -1.45,4.93 -2.37,5.73 m 20.53,1.19 v -7.26 c 0,-1.43 0,-2.25 -0.36,-2.83 -0.31,-0.53 -0.92,-0.79 -1.49,-0.79 -0.33,0 -1.26,0.08 -1.75,0.98 -0.31,0.56 -0.28,1.14 -0.28,2.38 v 7.52 h -3.93 v -8.21 c 0,-1.32 -0.18,-1.91 -0.77,-2.3 -0.33,-0.24 -0.74,-0.34 -1.16,-0.34 -0.18,0 -0.69,0 -1.13,0.34 -0.82,0.64 -0.85,1.72 -0.85,2.62 v 7.89 h -3.9 v -13.83 h 3.9 l 0.03,1.43 c 0.23,-0.29 0.39,-0.48 0.67,-0.71 0.51,-0.42 1.49,-1.09 3.11,-1.09 0.31,0 1.69,0.03 2.67,0.66 0.41,0.27 0.74,0.61 1.08,0.95 0.49,-0.42 0.67,-0.56 0.95,-0.74 0.46,-0.29 1.57,-0.87 3.03,-0.87 0.46,0 2.34,0.03 3.44,1.51 0.64,0.82 0.67,1.7 0.67,3.68 v 9 h -3.93 z m 25.3,-2.17 c -1.18,1.83 -3.65,2.54 -5.68,2.54 -0.72,0 -2.96,-0.13 -4.91,-1.38 -0.8,-0.5 -1.34,-1.06 -1.59,-1.3 l 2.52,-2.33 c 0.23,0.24 0.46,0.48 0.72,0.66 0.87,0.72 2.08,1.25 3.19,1.25 0.18,0 0.54,-0.03 0.98,-0.13 0.59,-0.13 1.39,-0.48 1.39,-1.25 -0.03,-0.95 -1.21,-1.06 -2.65,-1.3 -2.8,-0.48 -4.08,-1.14 -4.78,-2.52 a 4.005,4.005 0 0 1 -0.41,-1.72 c 0,-0.37 0.08,-1.19 0.57,-2.07 0.62,-1.14 2.13,-2.57 5.11,-2.57 0.85,0 2.83,0.13 4.86,1.32 0.38,0.24 0.74,0.48 1.1,0.74 l -2.44,2.33 a 6.26,6.26 0 0 0 -0.72,-0.53 c -0.72,-0.45 -1.8,-0.85 -2.65,-0.85 -0.57,0 -1.08,0.16 -1.26,0.24 -0.49,0.24 -0.62,0.58 -0.62,0.82 0,0.26 0.15,0.5 0.36,0.66 0.38,0.27 1.36,0.4 1.8,0.5 l 1.77,0.4 c 2.13,0.48 3.98,1.59 3.98,4.16 0,1.16 -0.41,1.98 -0.64,2.33 m 13.8,0.23 c -1.77,2.15 -4.06,2.38 -5.04,2.38 -0.59,0 -1.77,-0.08 -3.13,-0.77 -2.52,-1.27 -3.52,-3.73 -3.52,-6.49 0,-0.64 0.03,-1.96 0.67,-3.5 1.52,-3.63 4.83,-3.92 6.06,-3.92 1.05,0 3.42,0.21 5.21,2.54 0.15,0.21 0.26,0.37 0.51,0.79 l -2.93,1.72 c -0.03,-0.08 -0.23,-0.5 -0.44,-0.79 -0.23,-0.29 -0.98,-1.14 -2.18,-1.14 -0.28,0 -0.85,0.03 -1.44,0.48 -1.36,1.06 -1.41,3.42 -1.41,3.68 0,1.19 0.38,2.73 1.28,3.5 0.26,0.21 0.82,0.66 1.7,0.66 1.28,-0.03 1.98,-0.9 2.21,-1.25 0.13,-0.21 0.23,-0.37 0.39,-0.82 l 2.98,1.59 c -0.28,0.47 -0.59,0.95 -0.92,1.34 m 3.08,1.94 h 3.93 v -13.83 h -3.93 z m 0,-15.55 h 3.93 v -3.15 h -3.93 z m 14.62,4.48 c -0.54,-0.26 -0.98,-0.26 -1.21,-0.26 -1.57,0 -2.29,1.19 -2.49,1.67 -0.1,0.24 -0.2,0.53 -0.31,1.06 h 5.47 c -0.05,-0.46 -0.12,-1.86 -1.46,-2.47 z m -4.03,5 c 0,0.13 -0.03,0.45 0.05,0.82 0.31,1.62 1.41,2.62 3.01,2.62 0.23,0 0.74,-0.03 1.28,-0.24 1.34,-0.48 1.93,-1.88 2.11,-2.23 l 2.98,1.59 c -0.54,0.82 -0.82,1.19 -1.13,1.56 -1.98,2.25 -4.55,2.44 -5.55,2.44 -0.41,0 -1.36,-0.03 -2.42,-0.37 -2.98,-0.95 -4.37,-3.65 -4.37,-6.78 0,-0.85 0.05,-3.42 1.72,-5.4 0.82,-0.95 2.23,-2.2 5.16,-2.2 0.9,0 3.57,0.11 5.24,2.52 1.52,2.15 1.46,5 1.49,5.67 z m 19.91,6.07 v -7.81 c 0,-0.93 -0.03,-1.62 -0.15,-1.99 -0.18,-0.48 -0.67,-1.11 -1.8,-1.11 -0.18,0 -0.85,0 -1.34,0.42 -0.67,0.53 -0.74,1.38 -0.74,3.02 v 7.47 h -3.96 v -13.8 h 4.01 v 1.19 c 0.13,-0.13 0.28,-0.34 0.62,-0.61 0.49,-0.37 1.57,-0.95 3.16,-0.95 0.31,0 1.44,0.03 2.39,0.55 1.64,0.9 1.77,2.46 1.77,4.16 v 9.45 h -3.96 z M 407,216.57 c -1.77,2.15 -4.06,2.38 -5.04,2.38 -0.59,0 -1.77,-0.08 -3.13,-0.77 -2.52,-1.27 -3.52,-3.73 -3.52,-6.49 0,-0.64 0.03,-1.96 0.67,-3.5 1.52,-3.63 4.83,-3.92 6.06,-3.92 1.05,0 3.42,0.21 5.21,2.54 0.15,0.21 0.26,0.37 0.51,0.79 l -2.93,1.72 a 4.61,4.61 0 0 0 -0.44,-0.79 c -0.23,-0.29 -0.98,-1.14 -2.18,-1.14 -0.28,0 -0.85,0.03 -1.44,0.48 -1.36,1.06 -1.41,3.42 -1.41,3.68 0,1.19 0.38,2.73 1.28,3.5 0.26,0.21 0.82,0.66 1.7,0.66 1.28,-0.03 1.98,-0.9 2.21,-1.25 0.13,-0.21 0.23,-0.37 0.38,-0.82 l 2.98,1.59 c -0.27,0.47 -0.58,0.95 -0.91,1.34 m 10.2,-9.13 c -0.54,-0.26 -0.98,-0.26 -1.21,-0.26 -1.57,0 -2.29,1.19 -2.49,1.67 a 4.76,4.76 0 0 0 -0.31,1.06 h 5.47 c -0.05,-0.46 -0.13,-1.86 -1.46,-2.47 z m -4.04,5 c 0,0.13 -0.03,0.45 0.05,0.82 0.31,1.62 1.41,2.62 3,2.62 0.23,0 0.75,-0.03 1.28,-0.24 1.34,-0.48 1.93,-1.88 2.11,-2.23 l 2.98,1.59 c -0.54,0.82 -0.82,1.19 -1.13,1.56 -1.98,2.25 -4.55,2.44 -5.55,2.44 -0.41,0 -1.36,-0.03 -2.41,-0.37 -2.98,-0.95 -4.37,-3.65 -4.37,-6.78 0,-0.85 0.05,-3.42 1.72,-5.4 0.82,-0.95 2.24,-2.2 5.16,-2.2 0.9,0 3.57,0.11 5.24,2.52 1.52,2.15 1.46,5 1.49,5.67 z m 23.77,-4.92 v 6.2 c 0,0.56 -0.03,0.87 0.1,1.11 0.23,0.45 0.85,0.45 0.93,0.45 0.46,0 0.92,-0.03 1.39,-0.03 v 3.15 c -0.26,0.05 -1.18,0.21 -2.08,0.21 -0.28,0 -0.56,0 -0.82,-0.03 -0.36,-0.03 -1.54,0 -2.44,-0.85 -1.03,-0.93 -0.98,-2.33 -0.98,-3.6 v -6.65 h -1.95 v -2.49 h 1.94 v -4.32 h 3.91 v 4.34 h 2.62 v 2.49 h -2.62 z m 12.77,0.5 c -0.36,-0.26 -0.9,-0.53 -1.95,-0.53 -0.18,0 -0.92,0.05 -1.49,0.4 -0.72,0.42 -1.57,1.62 -1.57,3.66 0,1.35 0.44,2.36 0.69,2.78 0.31,0.48 1.08,1.35 2.57,1.35 2.18,0 3.16,-1.88 3.16,-3.95 0,-2.09 -0.65,-3.15 -1.41,-3.71 m 3.05,9.3 c -0.77,0.66 -2.34,1.62 -4.85,1.62 -0.69,0 -3.42,-0.13 -5.27,-1.99 -0.8,-0.79 -1.93,-2.49 -1.93,-5.38 0,-0.79 0.05,-3.05 1.57,-4.93 0.92,-1.14 2.77,-2.57 6.16,-2.36 1.57,0.08 2.95,0.45 4.21,1.48 1.67,1.4 2.47,3.6 2.47,5.83 0.01,3.13 -1.43,4.93 -2.36,5.73 m 20.56,1.19 v -7.23 c 0,-1.06 0.05,-2.46 -0.92,-3.15 -0.33,-0.24 -0.72,-0.34 -1.11,-0.34 -0.21,0 -0.72,0.05 -1.18,0.37 -0.85,0.61 -0.95,1.56 -0.95,3.47 v 6.89 h -3.96 v -18.7 h 3.96 l 0.03,6.33 c 0.08,-0.08 0.41,-0.48 0.77,-0.74 1.23,-0.98 2.47,-1.09 3.03,-1.09 1.8,0 2.83,0.87 3.26,1.38 0.28,0.32 0.51,0.72 0.64,1.11 0.23,0.61 0.36,1.3 0.36,2.62 v 9.08 z m 14.54,-11.07 c -0.54,-0.26 -0.98,-0.26 -1.21,-0.26 -1.57,0 -2.29,1.19 -2.49,1.67 -0.1,0.24 -0.21,0.53 -0.31,1.06 h 5.47 c -0.05,-0.46 -0.13,-1.86 -1.46,-2.47 z m -4.04,5 c 0,0.13 -0.03,0.45 0.05,0.82 0.31,1.62 1.41,2.62 3.01,2.62 0.23,0 0.75,-0.03 1.28,-0.24 1.34,-0.48 1.93,-1.88 2.11,-2.23 l 2.98,1.59 c -0.54,0.82 -0.82,1.19 -1.13,1.56 -1.98,2.25 -4.55,2.44 -5.55,2.44 -0.41,0 -1.36,-0.03 -2.41,-0.37 -2.98,-0.95 -4.37,-3.65 -4.37,-6.78 0,-0.85 0.05,-3.42 1.72,-5.4 0.82,-0.95 2.24,-2.2 5.16,-2.2 0.9,0 3.57,0.11 5.24,2.52 1.52,2.15 1.46,5 1.49,5.67 z m 16.83,0.32 c -0.15,0.05 -0.31,0.11 -0.46,0.19 -0.98,0.42 -1.23,1.01 -1.23,1.54 0,0.08 0.03,0.37 0.15,0.64 0.15,0.27 0.54,0.77 1.36,0.77 0.72,0 1.33,-0.42 1.51,-0.56 1.16,-0.85 1.21,-2.15 1.21,-3.44 z m 2.93,5.75 v -1.24 c -0.28,0.21 -0.54,0.4 -0.82,0.58 a 5.7,5.7 0 0 1 -3.29,1.03 c -2.42,0 -3.52,-1.35 -3.96,-2.28 -0.28,-0.58 -0.44,-1.27 -0.44,-1.93 0,-2.49 2.16,-3.68 2.75,-3.95 1,-0.45 2.83,-0.82 5.37,-1.3 v -0.77 c 0,-0.48 -0.08,-1.67 -1.51,-1.67 -1.16,0 -1.7,0.56 -1.9,1.01 -0.05,0.11 -0.13,0.32 -0.18,0.61 h -3.96 c 0.05,-0.56 0.08,-1.75 1.08,-2.78 1.1,-1.11 2.57,-1.32 3.03,-1.4 0.77,-0.11 1.41,-0.11 1.72,-0.11 1.88,0 4.42,0.45 5.32,2.44 0.15,0.37 0.28,0.74 0.28,1.54 v 8.08 c 0,1.19 0.05,1.64 0.39,2.14 z m 7.12,0 h 3.93 v -18.7 h -3.93 z m 11.87,-10.99 v 6.2 c 0,0.56 -0.03,0.87 0.1,1.11 0.23,0.45 0.85,0.45 0.92,0.45 0.46,0 0.92,-0.03 1.39,-0.03 v 3.15 c -0.26,0.05 -1.18,0.21 -2.08,0.21 -0.28,0 -0.57,0 -0.82,-0.03 -0.36,-0.03 -1.54,0 -2.44,-0.85 -1.03,-0.93 -0.98,-2.33 -0.98,-3.6 v -6.65 h -1.95 v -2.49 h 1.95 v -4.32 h 3.91 v 4.34 h 2.62 v 2.49 h -2.62 z m 12.82,10.99 v -7.23 c 0,-1.06 0.05,-2.46 -0.93,-3.15 -0.33,-0.24 -0.72,-0.34 -1.1,-0.34 -0.21,0 -0.72,0.05 -1.18,0.37 -0.85,0.61 -0.95,1.56 -0.95,3.47 v 6.89 h -3.96 v -18.7 h 3.96 l 0.03,6.33 c 0.08,-0.08 0.41,-0.48 0.77,-0.74 1.23,-0.98 2.47,-1.09 3.03,-1.09 1.8,0 2.83,0.87 3.26,1.38 0.28,0.32 0.51,0.72 0.64,1.11 0.23,0.61 0.36,1.3 0.36,2.62 v 9.08 z"
           mask="url(#b)"
           id="path30" />
        <path
           fill="#e74011"
           d="m 458.18,187.769 h 81.07 v -1.199 h -81.07 z m -316.2,30.701 h 98.38 v -1.2 h -98.38 z"
           mask="url(#b)"
           id="path32" />
      </g>
    </g>
  </g>
</svg>
