<?xml version="1.0" encoding="utf-8"?>
<svg viewBox="262.264 38.306 374.411 266.451" width="374.411px" height="266.451px" xmlns="http://www.w3.org/2000/svg">
  <g transform="matrix(1, 0, 0, 1, 193.786621, -8.915801)">
    <defs>
      <rect id="SVGID_1_" width="509.4" height="361.5"/>
    </defs>
    <clipPath id="SVGID_00000020361897269617846640000006466827045343216827_">
      <rect width="509.4" height="361.5" transform="matrix(1, 0, 0, 1, 0, 0)" style="overflow: visible;"/>
    </clipPath>
    <path style="clip-path:url(#SVGID_00000020361897269617846640000006466827045343216827_);fill-rule:evenodd;clip-rule:evenodd;fill:#172983;" d="   M407.2,116.3l33.6,0c1.4,0,2,0,2,0s0.2,1-0.3,1.7c-0.2,0.3-0.5,0.8-0.9,1.1c-3.2,3.2-12.8,8.6-21.4,12.3c-1.1,0.5-7.1,3.8-8.6,2.3   C407.4,129.6,407.2,116.3,407.2,116.3"/>
    <path style="clip-path:url(#SVGID_00000020361897269617846640000006466827045343216827_);fill-rule:evenodd;clip-rule:evenodd;fill:#0071B9;" d="   M290,296.2c-13.4,5.2-27,9.2-40.7,12.1l-4.3,0.9l-1.2,0.2l-10.1,1.7l-1,0.1c-26.8,3.9-53.1,3.2-76.8-2.2   c-40.5-9.3-69.9-31.7-81.7-62.4C62.4,216,69,179.6,92.6,145.5c23.7-34.1,62.4-63.1,107.8-80.7c45.3-17.5,93.5-22.2,134-12.9   c40.5,9.3,69.9,31.7,81.7,62.4c11.9,30.7,5.2,67.1-18.4,101.2C374.1,249.7,335.3,278.7,290,296.2"/>
    <path style="clip-path:url(#SVGID_00000020361897269617846640000006466827045343216827_);fill-rule:evenodd;clip-rule:evenodd;fill:#FFFFFF;" d="   M213.5,181l0-0.1l0-33.4c0-1.4,0.6-2.8,1.6-3.8c1-1,2.3-1.6,3.8-1.6c1.4,0,2.8,0.6,3.8,1.6c1,1,1.6,2.3,1.6,3.8l0,28.2l24.1,0   c1.4,0,2.8,0.6,3.8,1.6c1,1,1.6,2.3,1.6,3.8c0,1.4-0.6,2.8-1.6,3.8c-1,1-2.3,1.6-3.8,1.6l-24.1,0l0,28.2c0,1.4-0.6,2.8-1.6,3.8   s-2.3,1.6-3.8,1.6c-1.4,0-2.8-0.6-3.8-1.6c-1-1-1.6-2.3-1.6-3.8l0-33.4L213.5,181z M175.3,220c-10.7,0-21-4.1-28.5-11.4   c-7.6-7.3-11.8-17.2-11.8-27.6c0-10.3,4.3-20.2,11.8-27.5c7.6-7.3,17.8-11.4,28.5-11.4c9.2,0,18,3,25.2,8.5l0,0   c0.1,0.1,0.3,0.2,0.4,0.4c1,1,1.6,2.3,1.6,3.8v0.1c0,1.4-0.6,2.8-1.6,3.8c-1,1-2.3,1.6-3.7,1.5c-1.4,0-2.4-0.5-3.8-1.5l-0.6-0.5   c-5.1-3.6-11.1-5.6-17.4-5.6c-7.8,0-15.4,3-20.9,8.4c-5.5,5.4-8.7,12.6-8.7,20.2c0,7.6,3.1,14.8,8.7,20.2   c5.5,5.4,13.1,8.4,20.9,8.4c6.2,0,12.3-1.9,17.3-5.4c1.3-0.8,2.6-1.6,3.7-1.5c1.4,0,2.8,0.6,3.8,1.6c1,1,1.6,2.3,1.6,3.8v0.1   c0,1.5-0.4,2.7-1.3,3.4l-1.8,1.4C191.8,217.5,183.7,220,175.3,220 M352.7,195c0,7.4-3.1,13.4-9.4,18c-5.5,4.1-12.7,6.5-21.5,7v0   l-0.4,0c-9.8-0.3-17.7-2.7-23.8-7.1c-6.3-4.6-9.4-10.6-9.4-18l0-31.7l0,0l0-15.7c0-1.5,0.6-2.9,1.6-3.9c1-1,2.5-1.6,3.9-1.6   c1.5,0,2.9,0.6,3.9,1.6c1,1,1.6,2.5,1.6,3.9v1.3c0,0.1,0,0.2,0,0.4l0,42.9c0,5.6,1.3,9.8,5.6,12.8c3.9,2.7,9.5,4.2,16.8,4.4   c6.2-0.4,11-1.8,14.5-4.3c4.2-2.9,5.6-7.2,5.6-12.8l0-29h0l0-15.7c0-1.4,0.6-2.8,1.6-3.9c1-1,2.4-1.6,3.9-1.6   c1.4,0,2.8,0.6,3.9,1.6c1,1,1.6,2.4,1.6,3.9l0,1.4l0,0.2l0,2.7L352.7,195z M269.9,142.2c1.4,0,2.8,0.6,3.8,1.6c1,1,1.6,2.3,1.6,3.8   l0,67c0,1.4-0.6,2.8-1.6,3.8c-1,1-2.3,1.6-3.8,1.6c-1.4,0-2.8-0.6-3.8-1.6c-1-1-1.6-2.3-1.6-3.8l0-67c0-1.4,0.6-2.8,1.6-3.8   C267.1,142.8,268.5,142.2,269.9,142.2"/>
    <path style="clip-path:url(#SVGID_00000020361897269617846640000006466827045343216827_);fill-rule:evenodd;clip-rule:evenodd;fill:#EC7404;" d="   M442.2,117H286.8c-20.9,0-40.8-18.6-40.8-47.7l150.6,0.1c0,0,15.4-0.3,25.9,7.6c16.6,11.7,20.3,38.1,20.3,38.1s0.2,1.3,0,2   c-0.1,0.4-0.2,0.6-0.5,1.1c-0.1,0.2-0.8,1-0.8,1C441.7,119.1,443.4,117,442.2,117"/>
    <path style="clip-path:url(#SVGID_00000020361897269617846640000006466827045343216827_);fill-rule:evenodd;clip-rule:evenodd;fill:#FFFFFF;" d="   M280.4,100V86.2h3.5l3.7,10.5l3.7-10.5h3.5V100h-2.5V89.7l-3.6,10.3h-2.2l-3.5-10.3V100H280.4z M305,86c4,0,7.2,3.2,7.2,7.2   c0,4-3.3,7.1-7.2,7.1s-7.2-3.2-7.2-7.1C297.8,89.2,301,86,305,86 M305,88.4c-2.6,0-4.6,2.1-4.6,4.7c0,2.5,2.1,4.7,4.6,4.7   s4.6-2.2,4.6-4.7C309.6,90.5,307.5,88.4,305,88.4 M315.5,100V86.2h2.9l5.7,10v-10h2.5V100h-2.8l-5.8-10v10H315.5z M332.1,100V88.7   h-2.5v-2.5h7.6v2.5h-2.6V100H332.1z M342.4,100h-2.5V86.2h3.2c1.3,0,2.6-0.1,3.7,0.7c1.1,0.8,1.8,2.1,1.8,3.5   c0,1.4-0.6,2.7-1.6,3.5c-1.1,0.9-2.7,0.8-4.1,0.8h-0.5V100z M342.4,92.3h0.5c0.6,0,1.4,0,2-0.1c0.7-0.2,1.2-0.9,1.2-1.7   c0-0.8-0.6-1.4-1.3-1.6c-0.6-0.1-1.3-0.1-1.9-0.1h-0.5V92.3z M351.7,100V86.2h7.4v2.5h-4.8v3.2h4.6v2.5h-4.6v3.2h4.8v2.5H351.7z    M362.7,100V86.2h2.5v11.3h4.2v2.5H362.7z M372.3,100V86.2h2.5v11.3h4.2v2.5H372.3z M381.9,86.2h2.5V100h-2.5V86.2z M388.5,100   V86.2h7.4v2.5H391v3.2h4.6v2.5H391v3.2h4.8v2.5H388.5z M399.5,100V86.2h4c1.3,0,2.5,0.1,3.6,1c1,0.8,1.6,2.1,1.6,3.4   c0,1-0.5,2.2-1.1,3c-0.7,0.7-1.5,1.1-2.4,1.3l3.7,5.1h-3.1l-3.6-5.3h0v5.3H399.5z M402.1,92.8h1.4c0.7,0,1.5-0.1,2-0.6   c0.4-0.4,0.6-0.9,0.6-1.5c0-0.6-0.3-1.2-0.7-1.5c-0.6-0.4-1.2-0.5-1.9-0.5h-1.4V92.8z"/>
    <polygon style="clip-path:url(#SVGID_00000020361897269617846640000006466827045343216827_);fill:#FFFFFF;" points="270.2,303    269.3,303.3 269.3,245.1 270.2,245.1  "/>
  </g>
  <g transform="matrix(1, 0, 0, 1, 193.786621, -8.915801)">
    <path class="st5" d="M109.2,257.2c-1.8,0-3.3-0.7-4.5-1.9c-1.1-1.2-1.7-2.7-1.7-4.5c0-1.7,0.6-3.2,1.8-4.4c1.2-1.2,2.7-1.8,4.4-1.8   c2.8,0,5.2,1.9,6,4.8H112c-0.6-1.2-1.6-1.8-2.8-1.8c-1.8,0-3.2,1.4-3.2,3.2c0,1.9,1.5,3.4,3.2,3.4c1.1,0,2.1-0.6,2.8-1.7h3.2   C114.4,255.4,112.1,257.2,109.2,257.2z" style="fill: rgb(255, 255, 255);"/>
    <path class="st5" d="M116.6,257v-12.1h6.6v2.7h-3.6v2h3.6v2.7h-3.6v2.1h3.6v2.7H116.6z" style="fill: rgb(255, 255, 255);"/>
    <path class="st5" d="M125.1,257v-12.1h2.7l4.4,6.7v-6.7h3V257h-2.6l-4.5-6.7v6.7H125.1z" style="fill: rgb(255, 255, 255);"/>
    <path class="st5" d="M138.4,257v-9.3h-2.2v-2.8h7.5v2.8h-2.3v9.3H138.4z" style="fill: rgb(255, 255, 255);"/>
    <path class="st5" d="M144.6,257v-12.1h4c1.3,0,2.2,0.1,3.1,0.7c1.1,0.7,1.6,1.9,1.6,3.4c0,2-1,3.4-2.7,3.9l3,4.1h-3.7l-2.3-3.9v3.9   H144.6z M148.1,250.4c1.5,0,2.2-0.4,2.2-1.5c0-1-0.6-1.4-1.9-1.4h-0.8v2.9H148.1z" style="fill: rgb(255, 255, 255);"/>
    <path class="st5" d="M154.8,257v-12.1h6.6v2.7h-3.6v2h3.6v2.7h-3.6v2.1h3.6v2.7H154.8z" style="fill: rgb(255, 255, 255);"/>
    <path class="st5" d="M174.3,252.3h-3v4.6h-3v-12.1h3v4.6h3v-4.6h3V257h-3V252.3z" style="fill: rgb(255, 255, 255);"/>
    <path class="st5" d="M180.5,246.4c1.2-1.2,2.7-1.8,4.4-1.8c1.6,0,3.1,0.6,4.3,1.8c1.2,1.2,1.9,2.8,1.9,4.4c0,1.7-0.6,3.3-1.8,4.5   c-1.2,1.2-2.8,1.9-4.5,1.9c-1.8,0-3.3-0.6-4.5-1.9c-1.1-1.2-1.7-2.7-1.7-4.5C178.7,249.1,179.3,247.6,180.5,246.4z M184.9,254.2   c1.7,0,3.1-1.4,3.1-3.4c0-1.8-1.4-3.2-3.1-3.2c-1.8,0-3.2,1.4-3.2,3.2C181.7,252.7,183.2,254.2,184.9,254.2z" style="fill: rgb(255, 255, 255);"/>
    <path class="st5" d="M194.8,253c0,0.1,0,0.1,0,0.1c0,1,0.4,1.5,1.1,1.5c0.7,0,1.1-0.4,1.1-1c0-1.1-0.8-1.2-2.2-1.8   c-1.8-0.8-2.7-2-2.7-3.5c0-2.2,1.7-3.7,4.1-3.7c2.2,0,3.7,1.4,3.7,3.6c0,0.1,0,0.1,0,0.2h-2.7c0-0.7-0.4-1.2-1.1-1.2   c-0.5,0-0.9,0.4-0.9,0.9c0,0.9,0.9,1.1,2.4,1.9c1.6,0.9,2.4,1.9,2.4,3.4c0,2.1-1.7,3.8-4,3.8c-2.7,0-4.1-1.4-4.1-3.9   c0-0.1,0-0.2,0-0.3H194.8z" style="fill: rgb(255, 255, 255);"/>
    <path class="st5" d="M201.7,257v-12.1h4c1.3,0,2.2,0.1,3.1,0.7c1.1,0.7,1.6,1.9,1.6,3.4c0,1.6-0.7,2.9-1.9,3.6   c-0.8,0.5-1.7,0.5-3,0.5h-0.8v3.9H201.7z M205.2,250.4c1.5,0,2.2-0.4,2.2-1.5c0-1-0.6-1.4-1.9-1.4h-0.8v2.9H205.2z" style="fill: rgb(255, 255, 255);"/>
    <path class="st5" d="M211.9,257v-12.1h3V257H211.9z" style="fill: rgb(255, 255, 255);"/>
    <path class="st5" d="M218.1,257v-9.3h-2.2v-2.8h7.5v2.8h-2.3v9.3H218.1z" style="fill: rgb(255, 255, 255);"/>
    <path class="st5" d="M225.5,257h-3.2l4.6-12.1h2.4l4.6,12.1h-3.3l-0.6-1.8h-4L225.5,257z M228.1,248.8l-1.2,3.9h2.4L228.1,248.8z" style="fill: rgb(255, 255, 255);"/>
    <path class="st5" d="M234.1,257v-12.1h2.9v9.4h3.5v2.7H234.1z" style="fill: rgb(255, 255, 255);"/>
    <path class="st5" d="M241.6,257v-12.1h3V257H241.6z" style="fill: rgb(255, 255, 255);"/>
    <path class="st5" d="M246.4,257v-12.1h6.6v2.7h-3.6v2h3.6v2.7h-3.6v2.1h3.6v2.7H246.4z" style="fill: rgb(255, 255, 255);"/>
    <path class="st5" d="M254.9,257v-12.1h4c1.3,0,2.2,0.1,3.1,0.7c1.1,0.7,1.6,1.9,1.6,3.4c0,2-1,3.4-2.7,3.9l3,4.1h-3.7l-2.3-3.9v3.9   H254.9z M258.4,250.4c1.5,0,2.2-0.4,2.2-1.5c0-1-0.6-1.4-1.9-1.4h-0.8v2.9H258.4z" style="fill: rgb(255, 255, 255);"/>
    <path class="st5" d="M156.8,265.3v7.4c0,1.4,0.4,2.1,1.4,2.1c1,0,1.5-0.7,1.5-2.1v-7.4h3v7.6c0,3-1.8,4.7-4.5,4.7   c-2.7,0-4.4-1.7-4.4-4.7v-7.6H156.8z" style="fill: rgb(255, 255, 255);"/>
    <path class="st5" d="M164.7,277.4v-12.1h2.7l4.4,6.7v-6.7h3v12.1h-2.6l-4.5-6.7v6.7H164.7z" style="fill: rgb(255, 255, 255);"/>
    <path class="st5" d="M176.7,277.4v-12.1h3v12.1H176.7z" style="fill: rgb(255, 255, 255);"/>
    <path class="st5" d="M183.9,277.4l-3.7-12.1h3.1l2.3,8.1l2.3-8.1h3.1l-3.7,12.1H183.9z" style="fill: rgb(255, 255, 255);"/>
    <path class="st5" d="M191.5,277.4v-12.1h6.6v2.7h-3.6v2h3.6v2.7h-3.6v2.1h3.6v2.7H191.5z" style="fill: rgb(255, 255, 255);"/>
    <path class="st5" d="M199.9,277.4v-12.1h4c1.3,0,2.2,0.1,3.1,0.7c1.1,0.7,1.6,1.9,1.6,3.4c0,2-1,3.4-2.7,3.9l3,4.1h-3.7l-2.3-3.9   v3.9H199.9z M203.5,270.8c1.5,0,2.2-0.4,2.2-1.5c0-1-0.6-1.4-1.9-1.4h-0.8v2.9H203.5z" style="fill: rgb(255, 255, 255);"/>
    <path class="st5" d="M212.5,273.4c0,0.1,0,0.1,0,0.1c0,1,0.4,1.5,1.1,1.5c0.7,0,1.1-0.4,1.1-1c0-1.1-0.8-1.2-2.2-1.8   c-1.8-0.8-2.7-2-2.7-3.5c0-2.2,1.7-3.7,4.1-3.7c2.2,0,3.7,1.4,3.7,3.6c0,0.1,0,0.1,0,0.2h-2.7c0-0.7-0.4-1.2-1.1-1.2   c-0.5,0-0.9,0.4-0.9,0.9c0,0.9,0.9,1.1,2.4,1.9c1.6,0.9,2.4,1.9,2.4,3.4c0,2.1-1.7,3.8-4,3.8c-2.7,0-4.1-1.4-4.1-3.9   c0-0.1,0-0.2,0-0.3H212.5z" style="fill: rgb(255, 255, 255);"/>
    <path class="st5" d="M219.3,277.4v-12.1h3v12.1H219.3z" style="fill: rgb(255, 255, 255);"/>
    <path class="st5" d="M225.5,277.4v-9.3h-2.2v-2.8h7.5v2.8h-2.3v9.3H225.5z" style="fill: rgb(255, 255, 255);"/>
    <path class="st5" d="M232.9,277.4h-3.2l4.6-12.1h2.4l4.6,12.1h-3.3l-0.6-1.8h-4L232.9,277.4z M235.5,269.2l-1.2,3.9h2.4   L235.5,269.2z" style="fill: rgb(255, 255, 255);"/>
    <path class="st5" d="M241.6,277.4v-12.1h3v12.1H241.6z" style="fill: rgb(255, 255, 255);"/>
    <path class="st5" d="M246.5,277.4v-12.1h4c1.3,0,2.2,0.1,3.1,0.7c1.1,0.7,1.6,1.9,1.6,3.4c0,2-1,3.4-2.7,3.9l3,4.1h-3.7l-2.3-3.9   v3.9H246.5z M250,270.8c1.5,0,2.2-0.4,2.2-1.5c0-1-0.6-1.4-1.9-1.4h-0.8v2.9H250z" style="fill: rgb(255, 255, 255);"/>
    <path class="st5" d="M256.7,277.4v-12.1h6.6v2.7h-3.6v2h3.6v2.7h-3.6v2.1h3.6v2.7H256.7z" style="fill: rgb(255, 255, 255);"/>
  </g>
</svg>