<svg xmlns="http://www.w3.org/2000/svg" viewBox="0 0 293 64" width="293" height="64">
  <g>
  <path d="M11 46 Q21.5 14 32 46" fill="none" stroke="#3730a3" stroke-width="3.5" stroke-linecap="round"/>
  <path d="M32 46 Q42.5 14 53 46" fill="none" stroke="#3730a3" stroke-width="3.5" stroke-linecap="round"/>
  <path d="M11 46 Q32 -26 53 46" fill="none" stroke="#dc2626" stroke-width="3.5" stroke-linecap="round" stroke-dasharray="5 4"/>
  <path d="M18 51 H25 M39 51 H46" stroke="#3730a3" stroke-width="2.5" stroke-linecap="round"/>
  <rect x="4" y="46" width="14" height="10" rx="1.5" fill="#3730a3"/>
  <rect x="25" y="46" width="14" height="10" rx="1.5" fill="#3730a3"/>
  <rect x="46" y="46" width="14" height="10" rx="1.5" fill="#3730a3"/>
  </g>
  <path transform="translate(80 43)" d="M8.97 0.36L8.97 0.36Q6.30 0.36 4.39-0.60Q2.49-1.56 1.17-3.12L1.17-3.12L3.84-5.70Q4.92-4.44 6.25-3.78Q7.59-3.12 9.21-3.12L9.21-3.12Q11.04-3.12 11.97-3.93Q12.90-4.74 12.90-6.06L12.90-6.06Q12.90-6.78 12.64-7.30Q12.39-7.83 11.76-8.19Q11.13-8.55 10.05-8.73L10.05-8.73L8.07-9.03Q5.97-9.36 4.58-10.14Q3.18-10.92 2.49-12.18Q1.80-13.44 1.80-15.12L1.80-15.12Q1.80-17.01 2.73-18.39Q3.66-19.77 5.35-20.54Q7.05-21.30 9.39-21.30L9.39-21.30Q11.76-21.30 13.53-20.50Q15.30-19.71 16.56-18.21L16.56-18.21L13.86-15.66Q13.08-16.62 11.97-17.22Q10.86-17.82 9.18-17.82L9.18-17.82Q7.50-17.82 6.63-17.18Q5.76-16.53 5.76-15.36L5.76-15.36Q5.76-14.55 6.06-14.04Q6.36-13.53 7.02-13.24Q7.68-12.96 8.67-12.75L8.67-12.75L10.62-12.39Q12.75-12.03 14.13-11.25Q15.51-10.47 16.17-9.25Q16.83-8.04 16.83-6.30L16.83-6.30Q16.83-4.32 15.91-2.82Q15-1.32 13.23-0.48Q11.46 0.36 8.97 0.36ZM34.20-3.06L34.20 0L32.07 0Q31.20 0 30.52-0.40Q29.85-0.81 29.47-1.59Q29.10-2.37 29.10-3.42L29.10-3.42L29.10-3.75L30.06-2.70L28.98-2.70Q28.59-1.20 27.38-0.42Q26.16 0.36 24.42 0.36L24.42 0.36Q22.02 0.36 20.73-0.91Q19.44-2.19 19.44-4.26L19.44-4.26Q19.44-5.88 20.23-6.93Q21.03-7.98 22.53-8.52Q24.03-9.06 26.13-9.06L26.13-9.06L28.80-9.06L28.80-10.20Q28.80-11.49 28.11-12.22Q27.42-12.96 25.89-12.96L25.89-12.96Q24.54-12.96 23.71-12.38Q22.89-11.79 22.32-10.98L22.32-10.98L20.04-13.02Q20.91-14.37 22.35-15.20Q23.79-16.02 26.16-16.02L26.16-16.02Q29.31-16.02 30.97-14.56Q32.64-13.11 32.64-10.44L32.64-10.44L32.64-3.06L34.20-3.06ZM28.80-4.68L28.80-6.75L26.34-6.75Q24.84-6.75 24.09-6.25Q23.34-5.76 23.34-4.83L23.34-4.83L23.34-4.32Q23.34-3.39 23.97-2.91Q24.60-2.43 25.71-2.43L25.71-2.43Q26.58-2.43 27.27-2.69Q27.96-2.94 28.38-3.45Q28.80-3.96 28.80-4.68L28.80-4.68ZM42.45 0.36L42.45 0.36Q40.20 0.36 38.67-0.40Q37.14-1.17 35.97-2.52L35.97-2.52L38.31-4.80Q39.18-3.81 40.21-3.24Q41.25-2.67 42.60-2.67L42.60-2.67Q43.98-2.67 44.59-3.15Q45.21-3.63 45.21-4.47L45.21-4.47Q45.21-5.16 44.77-5.56Q44.34-5.97 43.29-6.12L43.29-6.12L41.73-6.33Q40.05-6.54 38.88-7.11Q37.71-7.68 37.11-8.67Q36.51-9.66 36.51-11.07L36.51-11.07Q36.51-13.35 38.14-14.68Q39.78-16.02 42.45-16.02L42.45-16.02Q43.98-16.02 45.07-15.73Q46.17-15.45 47.01-14.89Q47.85-14.34 48.57-13.56L48.57-13.56L46.32-11.31Q45.63-12.03 44.67-12.51Q43.71-12.99 42.57-12.99L42.57-12.99Q41.37-12.99 40.78-12.55Q40.20-12.12 40.20-11.37L40.20-11.37Q40.20-10.59 40.66-10.19Q41.13-9.78 42.24-9.60L42.24-9.60L43.83-9.39Q46.41-9.03 47.65-7.88Q48.90-6.72 48.90-4.77L48.90-4.77Q48.90-3.27 48.10-2.10Q47.31-0.93 45.85-0.28Q44.40 0.36 42.45 0.36ZM56.13 0L52.29 0L52.29-22.20L56.13-22.20L56.13-13.05L56.28-13.05Q56.76-14.31 57.79-15.16Q58.83-16.02 60.66-16.02L60.66-16.02Q63.06-16.02 64.36-14.41Q65.67-12.81 65.67-9.90L65.67-9.90L65.67 0L61.83 0L61.83-9.51Q61.83-11.16 61.23-12.01Q60.63-12.87 59.25-12.87L59.25-12.87Q58.47-12.87 57.75-12.58Q57.03-12.30 56.58-11.74Q56.13-11.19 56.13-10.35L56.13-10.35L56.13 0ZM71.85-17.94L71.85-17.94Q70.68-17.94 70.14-18.50Q69.60-19.05 69.60-19.86L69.60-19.86L69.60-20.46Q69.60-21.30 70.14-21.84Q70.68-22.38 71.85-22.38L71.85-22.38Q73.02-22.38 73.56-21.84Q74.10-21.30 74.10-20.46L74.10-20.46L74.10-19.86Q74.10-19.05 73.56-18.50Q73.02-17.94 71.85-17.94ZM73.77 0L69.93 0L69.93-15.66L73.77-15.66L73.77 0ZM82.02-10.35L82.02 0L78.18 0L78.18-15.66L82.02-15.66L82.02-13.05L82.17-13.05Q82.62-14.28 83.63-15.15Q84.63-16.02 86.37-16.02L86.37-16.02Q87.99-16.02 89.17-15.24Q90.36-14.46 90.90-12.87L90.90-12.87L90.96-12.87Q91.38-14.16 92.64-15.09Q93.90-16.02 95.76-16.02L95.76-16.02Q98.04-16.02 99.30-14.41Q100.56-12.81 100.56-9.90L100.56-9.90L100.56 0L96.72 0L96.72-9.51Q96.72-11.19 96.10-12.03Q95.49-12.87 94.20-12.87L94.20-12.87Q93.45-12.87 92.77-12.58Q92.10-12.30 91.69-11.74Q91.29-11.19 91.29-10.35L91.29-10.35L91.29 0L87.45 0L87.45-9.51Q87.45-11.19 86.82-12.03Q86.19-12.87 84.93-12.87L84.93-12.87Q84.21-12.87 83.53-12.58Q82.86-12.30 82.44-11.74Q82.02-11.19 82.02-10.35L82.02-10.35ZM106.74-17.94L106.74-17.94Q105.57-17.94 105.03-18.50Q104.49-19.05 104.49-19.86L104.49-19.86L104.49-20.46Q104.49-21.30 105.03-21.84Q105.57-22.38 106.74-22.38L106.74-22.38Q107.91-22.38 108.45-21.84Q108.99-21.30 108.99-20.46L108.99-20.46L108.99-19.86Q108.99-19.05 108.45-18.50Q107.91-17.94 106.74-17.94ZM108.66 0L104.82 0L104.82-15.66L108.66-15.66L108.66 0Z" fill="#1c1b33"/>
  <path transform="translate(198.8 43)" d="M14.22-15.48L8.76 0L5.97 0L0.54-15.48L2.94-15.48L5.64-7.80L7.32-2.52L7.47-2.52L9.15-7.80L11.91-15.48L14.22-15.48ZM18.51-19.11L18.51-19.11Q17.76-19.11 17.40-19.48Q17.04-19.86 17.04-20.46L17.04-20.46L17.04-20.85Q17.04-21.45 17.40-21.82Q17.76-22.20 18.51-22.20L18.51-22.20Q19.29-22.20 19.63-21.82Q19.98-21.45 19.98-20.85L19.98-20.85L19.98-20.46Q19.98-19.86 19.63-19.48Q19.29-19.11 18.51-19.11ZM19.71 0L17.31 0L17.31-15.48L19.71-15.48L19.71 0ZM30.63 0.36L30.63 0.36Q28.53 0.36 26.97-0.65Q25.41-1.65 24.54-3.46Q23.67-5.28 23.67-7.74L23.67-7.74Q23.67-10.20 24.54-12.01Q25.41-13.83 26.97-14.83Q28.53-15.84 30.63-15.84L30.63-15.84Q32.70-15.84 34.20-14.87Q35.70-13.89 36.51-12.18Q37.32-10.47 37.32-8.28L37.32-8.28L37.32-7.14L26.19-7.14L26.19-6.42Q26.19-4.41 27.40-3.07Q28.62-1.74 30.78-1.74L30.78-1.74Q32.25-1.74 33.34-2.43Q34.44-3.12 35.04-4.41L35.04-4.41L36.75-3.18Q36-1.62 34.41-0.63Q32.82 0.36 30.63 0.36ZM30.63-13.83L30.63-13.83Q29.34-13.83 28.33-13.23Q27.33-12.63 26.76-11.56Q26.19-10.50 26.19-9.15L26.19-9.15L26.19-8.94L34.74-8.94L34.74-9.27Q34.74-10.65 34.23-11.67Q33.72-12.69 32.79-13.26Q31.86-13.83 30.63-13.83ZM46.71 0L43.80 0L39.66-15.48L42-15.48L43.65-8.79L45.30-2.01L45.36-2.01L47.25-8.79L49.20-15.48L51.33-15.48L53.34-8.79L55.26-2.01L55.32-2.01L56.91-8.79L58.59-15.48L60.84-15.48L56.73 0L53.76 0L51.60-7.44L50.25-12.15L50.19-12.15L48.87-7.44L46.71 0ZM70.14 0.36L70.14 0.36Q68.04 0.36 66.48-0.65Q64.92-1.65 64.05-3.46Q63.18-5.28 63.18-7.74L63.18-7.74Q63.18-10.20 64.05-12.01Q64.92-13.83 66.48-14.83Q68.04-15.84 70.14-15.84L70.14-15.84Q72.21-15.84 73.71-14.87Q75.21-13.89 76.02-12.18Q76.83-10.47 76.83-8.28L76.83-8.28L76.83-7.14L65.70-7.14L65.70-6.42Q65.70-4.41 66.91-3.07Q68.13-1.74 70.29-1.74L70.29-1.74Q71.76-1.74 72.85-2.43Q73.95-3.12 74.55-4.41L74.55-4.41L76.26-3.18Q75.51-1.62 73.92-0.63Q72.33 0.36 70.14 0.36ZM70.14-13.83L70.14-13.83Q68.85-13.83 67.84-13.23Q66.84-12.63 66.27-11.56Q65.70-10.50 65.70-9.15L65.70-9.15L65.70-8.94L74.25-8.94L74.25-9.27Q74.25-10.65 73.74-11.67Q73.23-12.69 72.30-13.26Q71.37-13.83 70.14-13.83ZM83.19-10.50L83.19 0L80.79 0L80.79-15.48L83.19-15.48L83.19-12.63L83.34-12.63Q83.61-13.38 84.18-14.03Q84.75-14.67 85.65-15.07Q86.55-15.48 87.81-15.48L87.81-15.48L88.74-15.48L88.74-13.08L87.33-13.08Q86.04-13.08 85.11-12.73Q84.18-12.39 83.68-11.82Q83.19-11.25 83.19-10.50L83.19-10.50Z" fill="#5f5e7a"/>
</svg>
